<?xml version="1.0" standalone="no"?>
<!DOCTYPE svg PUBLIC "-//W3C//DTD SVG 20010904//EN"
 "http://www.w3.org/TR/2001/REC-SVG-20010904/DTD/svg10.dtd">
<svg version="1.0" xmlns="http://www.w3.org/2000/svg"
 width="260.000000pt" height="260.000000pt" viewBox="0 0 260.000000 260.000000"
 preserveAspectRatio="xMidYMid meet">
<metadata>
Created by potrace 1.11, written by Peter Selinger 2001-2013
</metadata>
<g transform="translate(0.000000,260.000000) scale(0.100000,-0.100000)"
fill="#000000" stroke="none">
<path d="M0 1300 l0 -1300 1300 0 1300 0 0 1300 0 1300 -1300 0 -1300 0 0
-1300z m1646 759 c152 -47 245 -116 293 -219 22 -47 26 -69 26 -150 0 -89 -2
-100 -37 -174 -66 -137 -232 -278 -411 -346 -45 -18 -84 -34 -86 -35 -2 -2 13
-21 32 -42 20 -20 71 -100 114 -176 85 -151 133 -219 176 -251 23 -17 41 -21
93 -19 61 3 64 2 64 -21 0 -54 -90 -116 -169 -116 -106 0 -193 50 -260 148
-22 32 -78 139 -126 238 -83 174 -131 244 -165 244 -10 0 -25 -21 -40 -57 -35
-87 -123 -261 -163 -324 -83 -129 -199 -229 -267 -229 -86 0 -105 60 -40 124
104 101 186 275 366 781 57 162 115 284 155 330 35 40 78 46 129 20 56 -29 63
-73 26 -156 -38 -87 -138 -367 -134 -378 5 -15 148 26 222 64 188 98 298 235
313 390 11 125 -36 191 -161 222 -133 32 -313 -13 -471 -119 -43 -28 -84 -48
-100 -48 -37 0 -105 68 -105 104 0 38 62 101 134 135 161 76 447 105 592 60z"/>
</g>
</svg>
